<svg width="24" height="24" viewBox="0 0 24 24" fill="none" xmlns="http://www.w3.org/2000/svg">
<path d="M8.11159 19.4504C7.006 19.043 6.02214 18.3612 5.25246 17.469C4.48278 16.5769 3.95255 15.5037 3.71159 14.3504L2.05159 6.54037C1.81159 5.46037 2.50159 4.40037 3.58159 4.17037L13.3516 2.10037L13.3816 2.09037C14.4516 1.88037 15.5016 2.57037 15.7216 3.63037L16.0716 5.30037L20.4216 6.23037H20.4516C21.5016 6.47037 22.1816 7.53037 21.9616 8.59037L20.3016 16.4104C20.11 17.3087 19.7433 18.1604 19.2225 18.917C18.7016 19.6736 18.0368 20.3201 17.2661 20.8197C16.4953 21.3193 15.6337 21.6622 14.7304 21.8287C13.8271 21.9953 12.8998 21.9823 12.0016 21.7904C10.4781 21.4715 9.10721 20.6468 8.11159 19.4504ZM20.0016 8.18037L10.2316 6.10037L8.57159 13.9204V13.9504C8.00159 16.6304 9.73159 19.2704 12.4216 19.8404C15.1116 20.4104 17.7716 18.6904 18.3416 16.0004L20.0016 8.18037ZM16.0016 16.5004C15.6859 17.0354 15.2099 17.4576 14.6409 17.707C14.072 17.9565 13.439 18.0206 12.8316 17.8904C12.2258 17.7613 11.6755 17.4462 11.2578 16.9889C10.84 16.5317 10.5756 15.9553 10.5016 15.3404L16.0016 16.5004ZM8.47159 5.17037L4.00159 6.13037L5.66159 13.9404L5.67159 13.9704C5.82159 14.6804 6.12159 15.3204 6.53159 15.8704C6.43159 15.1004 6.45159 14.3004 6.62159 13.5004L7.05159 11.5004C6.60159 11.4204 6.21159 11.1704 6.00159 10.8104C6.06159 10.2004 6.56159 9.66037 7.25159 9.50037H7.50159L8.28159 5.69037C8.32159 5.50037 8.38159 5.33037 8.47159 5.17037ZM15.0316 12.2304C15.3516 11.7004 16.0316 11.4204 16.7216 11.5704C17.4116 11.7104 17.9116 12.2404 18.0016 12.8604C17.6716 13.3804 17.0016 13.6604 16.3016 13.5004C15.6116 13.3704 15.1116 12.8404 15.0316 12.2304ZM10.1516 11.1904C10.4716 10.6604 11.1416 10.3804 11.8316 10.5304C12.5016 10.6704 13.0316 11.2104 13.1116 11.8204C12.7816 12.3404 12.1116 12.6304 11.4216 12.5004C10.7316 12.3304 10.2316 11.8004 10.1516 11.1904ZM11.9716 4.43037L13.9316 4.85037L13.7716 4.05037L11.9716 4.43037Z" fill="#D4A843"/>
</svg>
